<svg width="150" height="45" viewBox="0 0 150 45" fill="none" xmlns="http://www.w3.org/2000/svg">
<path fill-rule="evenodd" clip-rule="evenodd" d="M13.1218 1.46129C11.2881 1.78849 9.90973 2.33934 8.53204 3.29552C5.86626 5.14571 4.24182 7.86977 3.79776 11.2345C3.70857 11.9107 3.72004 12.0896 4.215 17.7214L4.72407 23.5131L4.91911 23.6758C5.02647 23.7654 5.18165 23.8324 5.26401 23.8248C5.50343 23.8028 5.81171 23.569 5.83533 23.3914C5.84733 23.3015 5.63295 20.6783 5.35892 17.562L4.8606 11.896L4.97852 11.1088C5.28301 9.07479 6.04925 7.40696 7.38761 5.86507C8.41981 4.67579 9.72792 3.74784 11.1541 3.1931C12.2914 2.75073 12.8295 2.64966 14.8155 2.50504C16.3313 2.39468 16.6862 2.39026 17.2162 2.47502C19.1919 2.79127 20.7154 3.47282 22.1829 4.69673C23.7302 5.98733 24.7285 7.47898 25.3676 9.45495C25.5811 10.1151 25.6052 10.3114 26.1548 15.8563L26.7218 21.5766L26.9032 21.6981C27.2211 21.9112 27.5863 21.7902 27.7411 21.4207C27.8498 21.1608 26.8965 11.0069 26.662 9.9288C26.1357 7.50816 24.864 5.42439 22.9243 3.80393C20.8726 2.08986 18.3794 1.21233 15.6615 1.24778C14.8668 1.25812 13.7199 1.35455 13.1218 1.46129ZM2.66872 14.3709C2.59928 14.4546 2.53305 14.6315 2.52144 14.764C2.50989 14.8965 2.68872 16.9508 2.91893 19.3289L3.3374 23.6529L3.5539 23.8075C3.8194 23.9971 4.04552 23.984 4.27527 23.7658L4.45 23.5999L4.02883 19.0165C3.61644 14.5288 3.60438 14.4305 3.4515 14.303C3.24661 14.1321 2.83728 14.1676 2.66872 14.3709ZM27.3391 12.1538C27.2099 12.3538 27.2134 12.4123 27.6227 16.8667L28.0372 21.3772L28.2289 21.537C28.3497 21.6378 28.5022 21.6894 28.6415 21.6766C28.7807 21.6638 28.9213 21.5853 29.0217 21.4641L29.1811 21.2721L28.7666 16.7616C28.3573 12.3072 28.35 12.2491 28.1866 12.0759C28.0589 11.9407 27.958 11.9064 27.7455 11.926C27.5329 11.9455 27.4399 11.9976 27.3391 12.1538ZM1.55465 16.0995C1.43755 16.1636 1.32593 16.2725 1.30655 16.3417C1.28709 16.4108 1.38788 17.7367 1.53045 19.2882L1.78968 22.1091L1.99171 22.2404C2.24404 22.4044 2.54016 22.3818 2.74372 22.183L2.89993 22.0305L2.65995 19.197L2.41998 16.3635L2.24021 16.1983C2.00618 15.9833 1.81672 15.9559 1.55465 16.0995ZM5.83056 15.6595C5.74411 15.6813 5.61511 15.7894 5.54385 15.8997C5.41744 16.0955 5.42108 16.1688 5.69417 18.9242L5.97406 21.748L6.15545 21.8695C6.40797 22.0387 6.72234 21.9935 6.91568 21.7603L7.07502 21.5682L6.81474 18.7357C6.55928 15.9558 6.55144 15.901 6.39237 15.7776C6.20777 15.6343 6.05632 15.6025 5.83056 15.6595ZM24.9042 13.9425C24.5736 14.1511 24.5716 14.2374 24.8331 17.0956C25.0352 19.304 25.0993 19.8035 25.201 19.9631C25.4023 20.2787 25.772 20.3065 26.0651 20.0282L26.2398 19.8624L25.9768 16.9997C25.7225 14.2327 25.7085 14.1327 25.5575 14.0069C25.4717 13.9352 25.3719 13.8793 25.3358 13.8826C25.2996 13.8859 25.2258 13.8768 25.1717 13.8623C25.1175 13.8478 24.9972 13.8839 24.9042 13.9425ZM29.0678 13.579C28.9568 13.6382 28.8502 13.7432 28.8308 13.8124C28.8114 13.8815 28.9119 15.2041 29.0541 16.7516L29.3126 19.5652L29.4924 19.706C29.837 19.9756 30.3425 19.7678 30.4094 19.3288C30.4234 19.2371 30.3139 17.9483 30.1661 16.4648C29.9185 13.9798 29.8861 13.7574 29.7548 13.6363C29.5694 13.4654 29.3194 13.4446 29.0678 13.579Z" fill="white"/>
<path d="M17.9126 17.301L14.4058 37.5627H11.0103L14.531 17.301H17.9126ZM24.0774 17.301L23.5903 20.0842H7.93481L8.42188 17.301H24.0774ZM27.1807 25.5393L25.0933 37.5627H21.823L24.4392 22.5056H27.5425L27.1807 25.5393ZM32.0791 22.3804L31.7173 25.5115C31.5039 25.4744 31.2859 25.4419 31.0632 25.4141C30.8499 25.3862 30.6365 25.3723 30.4231 25.3723C29.8572 25.363 29.3469 25.4419 28.8923 25.6089C28.4377 25.7759 28.0388 26.0171 27.6956 26.3325C27.3523 26.6387 27.0647 27.0098 26.8328 27.4458C26.6008 27.8726 26.4199 28.3503 26.29 28.8792L25.5107 28.9348C25.6035 28.2019 25.7612 27.4412 25.9839 26.6526C26.2158 25.864 26.5359 25.1311 26.9441 24.4539C27.3523 23.7673 27.8718 23.2153 28.5027 22.7979C29.1335 22.3711 29.8989 22.167 30.7988 22.1855C31.0122 22.1855 31.2256 22.2041 31.439 22.2412C31.6523 22.2783 31.8657 22.3247 32.0791 22.3804ZM36.3792 35.7537L42.5857 22.5056H46.2039L37.3811 39.8728C37.1306 40.3923 36.843 40.884 36.5183 41.3479C36.2029 41.8118 35.8411 42.22 35.4329 42.5725C35.0247 42.925 34.5654 43.1987 34.0552 43.3936C33.5542 43.5977 32.9883 43.6997 32.3574 43.6997C32.0698 43.6904 31.7869 43.658 31.5085 43.6023C31.2209 43.5559 30.938 43.5002 30.6597 43.4353L30.8962 40.8608C30.9983 40.8701 31.1003 40.8794 31.2024 40.8887C31.3044 40.9072 31.4065 40.9165 31.5085 40.9165C32.0374 40.9351 32.5012 40.8655 32.9001 40.7078C33.2991 40.5593 33.647 40.3274 33.9438 40.012C34.25 39.6965 34.519 39.3115 34.751 38.8569L36.3792 35.7537ZM36.407 22.5056L37.9377 33.9446L37.9099 37.3679L35.6277 37.9524L32.9836 22.5056H36.407ZM49.0984 16.1877H52.3826L49.1958 34.543L48.3748 37.5627H45.3828L49.0984 16.1877ZM59.5076 29.8115L59.4797 30.1038C59.3591 31.0315 59.1411 31.9592 58.8257 32.887C58.5195 33.8054 58.0928 34.645 57.5454 35.4058C57.0073 36.1665 56.3394 36.7742 55.5415 37.2288C54.7529 37.6741 53.8206 37.8828 52.7444 37.855C51.7888 37.8364 50.991 37.5999 50.3508 37.1453C49.72 36.6907 49.2236 36.1016 48.8618 35.3779C48.5 34.6543 48.2542 33.8704 48.1243 33.0261C47.9944 32.1726 47.948 31.3376 47.9851 30.5212L48.0964 29.575C48.2542 28.7122 48.5046 27.8447 48.8479 26.9727C49.2004 26.0913 49.655 25.2888 50.2117 24.5652C50.7683 23.8323 51.4316 23.2524 52.2017 22.8257C52.981 22.3896 53.8669 22.1855 54.8596 22.2134C55.8987 22.2412 56.7429 22.4917 57.3923 22.9648C58.0417 23.4287 58.5334 24.0317 58.8674 24.7739C59.2107 25.5161 59.4241 26.3279 59.5076 27.2092C59.6003 28.0906 59.6003 28.958 59.5076 29.8115ZM56.1956 30.0898L56.2373 29.7837C56.293 29.3105 56.3162 28.7957 56.3069 28.239C56.3069 27.6824 56.2373 27.1536 56.0981 26.6526C55.959 26.1516 55.7131 25.7434 55.3606 25.428C55.0173 25.1033 54.521 24.9316 53.8716 24.9131C53.2964 24.8853 52.7769 24.978 52.313 25.1914C51.8491 25.3955 51.4409 25.6831 51.0884 26.0542C50.7358 26.416 50.4436 26.8335 50.2117 27.3066C49.9797 27.7798 49.8035 28.2715 49.6829 28.7817L49.2932 31.3284C49.2654 31.95 49.3442 32.5483 49.5298 33.1235C49.7153 33.6987 50.0215 34.1765 50.4482 34.5569C50.875 34.928 51.4363 35.1228 52.1321 35.1414C52.8279 35.1692 53.417 35.03 53.8994 34.7239C54.3911 34.4177 54.79 34.0142 55.0962 33.5132C55.4116 33.0122 55.6575 32.4602 55.8337 31.8572C56.01 31.2542 56.1306 30.665 56.1956 30.0898ZM67.7041 37.8411C66.6743 37.8225 65.7605 37.623 64.9626 37.2427C64.1741 36.853 63.52 36.3289 63.0005 35.6702C62.481 35.0022 62.1052 34.2368 61.8733 33.374C61.6414 32.502 61.5625 31.5742 61.6367 30.5908L61.6924 30.0203C61.7944 29.009 62.0403 28.0349 62.4299 27.0979C62.8196 26.1516 63.3391 25.312 63.9885 24.5791C64.6472 23.8369 65.4219 23.2524 66.3125 22.8257C67.2031 22.3989 68.1958 22.1995 69.2905 22.2273C70.3389 22.2458 71.2249 22.4639 71.9485 22.8813C72.6721 23.2988 73.2473 23.8555 73.6741 24.5513C74.1008 25.2378 74.3838 26.0171 74.5229 26.8892C74.6714 27.7612 74.6946 28.6658 74.5925 29.6028L74.3977 31.0361H63.0979L63.4875 28.6287L71.4614 28.6426L71.5171 28.3503C71.6006 27.7659 71.5681 27.2139 71.4197 26.6943C71.2805 26.1748 71.0208 25.748 70.6404 25.4141C70.26 25.0801 69.7498 24.9038 69.1096 24.8853C68.4138 24.8667 67.8154 25.0105 67.3145 25.3167C66.8228 25.6228 66.4146 26.0356 66.0898 26.5552C65.7651 27.0747 65.51 27.6406 65.3245 28.2529C65.1482 28.856 65.0229 29.4451 64.9487 30.0203L64.8931 30.5769C64.8374 31.1243 64.8513 31.667 64.9348 32.2051C65.0183 32.7432 65.1807 33.2349 65.4219 33.6802C65.6631 34.1162 65.9971 34.4734 66.4238 34.7517C66.8506 35.0208 67.3794 35.1646 68.0103 35.1831C68.7988 35.2017 69.5132 35.0393 70.1533 34.696C70.8027 34.3435 71.3918 33.8889 71.9207 33.3323L73.5349 35.0439C73.1082 35.6841 72.5793 36.2129 71.9485 36.6304C71.3269 37.0479 70.6497 37.3586 69.9167 37.5627C69.1931 37.7576 68.4556 37.8503 67.7041 37.8411ZM86.3933 17.301L82.9143 37.5627H81.801L85.2939 17.301H86.3933ZM93.3792 17.301L93.2261 18.3308H78.1411L78.2942 17.301H93.3792ZM101.743 34.0559L103.719 22.5056H104.832L102.244 37.5627H101.158L101.743 34.0559ZM102.355 31.5232L103.079 31.5093C102.921 32.3999 102.661 33.2302 102.299 34.0002C101.938 34.7703 101.474 35.4429 100.908 36.0181C100.351 36.5933 99.6877 37.0432 98.9177 37.3679C98.157 37.6926 97.2942 37.8503 96.3293 37.8411C95.4666 37.8411 94.7568 37.688 94.2002 37.3818C93.6436 37.0664 93.2122 36.6396 92.906 36.1016C92.6091 35.5635 92.4236 34.9512 92.3494 34.2646C92.2844 33.5781 92.3076 32.8545 92.4189 32.0938L94.0471 22.5056H95.1465L93.4905 32.1216C93.407 32.7153 93.3792 33.2905 93.407 33.8472C93.4441 34.3945 93.5647 34.8909 93.7688 35.3362C93.9822 35.7815 94.3022 36.1387 94.729 36.4077C95.1558 36.6768 95.7124 36.8113 96.3989 36.8113C97.5029 36.8206 98.4631 36.5979 99.2795 36.1433C100.096 35.6887 100.759 35.0625 101.27 34.2646C101.789 33.4668 102.151 32.553 102.355 31.5232ZM109.814 25.748L107.782 37.5627H106.683L109.271 22.5056H110.343L109.814 25.748ZM109.076 28.8792L108.659 28.2251C108.863 27.4644 109.165 26.7268 109.563 26.0125C109.962 25.2981 110.445 24.658 111.011 24.092C111.586 23.5168 112.235 23.0623 112.959 22.7283C113.683 22.3943 114.471 22.2273 115.325 22.2273C116.169 22.2273 116.86 22.3757 117.398 22.6726C117.946 22.9695 118.363 23.3777 118.651 23.8972C118.938 24.4167 119.115 25.0105 119.179 25.6785C119.244 26.3464 119.221 27.0515 119.11 27.7937L117.44 37.5627H116.341L118.024 27.7937C118.145 26.9958 118.154 26.249 118.052 25.5532C117.95 24.8574 117.667 24.2961 117.203 23.8694C116.749 23.4426 116.058 23.2339 115.13 23.2432C114.36 23.2432 113.646 23.4055 112.987 23.7302C112.337 24.0549 111.748 24.491 111.219 25.0383C110.7 25.5764 110.255 26.1794 109.884 26.8474C109.522 27.5154 109.253 28.1926 109.076 28.8792ZM127.446 37.8411C126.434 37.8411 125.562 37.6277 124.829 37.2009C124.096 36.7649 123.503 36.1897 123.048 35.4753C122.603 34.7517 122.297 33.9539 122.13 33.0818C121.972 32.2004 121.949 31.3098 122.06 30.4099L122.157 29.7976C122.287 28.8792 122.547 27.9746 122.937 27.084C123.336 26.1841 123.846 25.3677 124.468 24.6348C125.098 23.9019 125.827 23.3174 126.652 22.8813C127.487 22.436 128.415 22.218 129.436 22.2273C130.363 22.2273 131.147 22.4175 131.787 22.7979C132.427 23.1782 132.938 23.6838 133.318 24.3147C133.708 24.9456 133.968 25.6553 134.097 26.4438C134.227 27.2231 134.241 28.021 134.139 28.8374L134.014 29.7698H122.825L122.979 28.7539H133.012L133.054 28.573C133.202 27.7288 133.165 26.8984 132.942 26.082C132.729 25.2656 132.325 24.593 131.732 24.0642C131.147 23.5261 130.373 23.2524 129.408 23.2432C128.536 23.2339 127.747 23.4241 127.042 23.8137C126.337 24.1941 125.725 24.709 125.205 25.3584C124.686 25.9985 124.259 26.7083 123.925 27.4875C123.6 28.2576 123.373 29.0276 123.243 29.7976L123.159 30.396C123.048 31.1382 123.048 31.8896 123.159 32.6504C123.28 33.4019 123.512 34.093 123.855 34.7239C124.208 35.3547 124.686 35.865 125.289 36.2546C125.892 36.635 126.625 36.8298 127.487 36.8391C128.406 36.8484 129.236 36.6675 129.978 36.2964C130.73 35.9253 131.426 35.4243 132.066 34.7935L132.748 35.3362C132.302 35.8743 131.801 36.3335 131.245 36.7139C130.697 37.085 130.104 37.3679 129.463 37.5627C128.823 37.7483 128.151 37.8411 127.446 37.8411ZM145.564 33.8054C145.703 33.0725 145.583 32.4788 145.202 32.0242C144.822 31.5603 144.326 31.1985 143.713 30.9387C143.11 30.6697 142.521 30.4609 141.946 30.3125C141.399 30.1733 140.842 30.011 140.276 29.8254C139.719 29.6306 139.214 29.3801 138.759 29.074C138.314 28.7678 137.971 28.3828 137.729 27.9189C137.498 27.4458 137.428 26.8613 137.521 26.1655C137.604 25.4976 137.822 24.9177 138.175 24.426C138.527 23.9343 138.963 23.5261 139.483 23.2014C140.012 22.8767 140.582 22.6355 141.195 22.4778C141.816 22.3108 142.428 22.2273 143.031 22.2273C143.931 22.2273 144.752 22.3943 145.495 22.7283C146.246 23.053 146.831 23.54 147.248 24.1895C147.675 24.8296 147.842 25.6367 147.749 26.6108H146.664C146.729 25.8687 146.599 25.2517 146.274 24.76C145.949 24.259 145.495 23.8833 144.91 23.6328C144.326 23.373 143.699 23.2432 143.031 23.2432C142.41 23.2432 141.784 23.3452 141.153 23.5493C140.522 23.7441 139.97 24.0549 139.497 24.4817C139.033 24.9084 138.736 25.4558 138.606 26.1238C138.513 26.6711 138.564 27.1304 138.759 27.5015C138.954 27.8726 139.246 28.1787 139.636 28.4199C140.026 28.6519 140.448 28.842 140.902 28.9905C141.366 29.1389 141.812 29.2688 142.238 29.3801C142.999 29.5842 143.741 29.8486 144.465 30.1733C145.188 30.498 145.764 30.948 146.19 31.5232C146.626 32.0891 146.784 32.8359 146.664 33.7637C146.571 34.478 146.339 35.0903 145.968 35.6006C145.606 36.1108 145.147 36.533 144.59 36.8669C144.043 37.1917 143.444 37.4329 142.795 37.5906C142.155 37.7576 141.519 37.8411 140.888 37.8411C140.016 37.8411 139.181 37.688 138.384 37.3818C137.595 37.0757 136.959 36.6072 136.477 35.9763C135.995 35.3455 135.791 34.543 135.865 33.5688L136.95 33.5828C136.922 34.3528 137.089 34.979 137.451 35.4614C137.822 35.9438 138.314 36.2917 138.926 36.5051C139.539 36.7185 140.193 36.8252 140.888 36.8252C141.519 36.8159 142.169 36.7092 142.837 36.5051C143.514 36.2917 144.103 35.967 144.604 35.531C145.114 35.0857 145.434 34.5105 145.564 33.8054Z" fill="white"/>
</svg>
