<svg width="83" height="105" viewBox="0 0 83 105" fill="none" xmlns="http://www.w3.org/2000/svg">
<path fill-rule="evenodd" clip-rule="evenodd" d="M8.55687 0.382967C4.57345 1.44776 1.44903 4.59809 0.398212 8.60892C-0.132737 10.635 -0.132737 94.3466 0.398212 96.3726C1.4627 100.435 4.59349 103.558 8.6582 104.61C10.6649 105.13 23.3638 105.13 25.3705 104.61C29.4352 103.558 32.566 100.435 33.6305 96.3726C33.9359 95.2071 33.9821 89.4427 33.9821 52.4908C33.9821 15.048 33.939 9.7857 33.6213 8.57355C32.5624 4.53273 29.4215 1.42035 25.3349 0.362116C23.4265 -0.131976 10.4226 -0.116045 8.55687 0.382967ZM57.5748 0.382967C53.5914 1.44776 50.467 4.59809 49.4161 8.60892C48.8852 10.635 48.8852 94.3466 49.4161 96.3726C50.4806 100.435 53.6114 103.558 57.6761 104.61C59.6828 105.13 72.3817 105.13 74.3884 104.61C78.4531 103.558 81.5839 100.435 82.6484 96.3726C82.9538 95.2071 83 89.4427 83 52.4908C83 15.048 82.9569 9.7857 82.6392 8.57355C81.5804 4.53273 78.4394 1.42035 74.3528 0.362116C72.4444 -0.131976 59.4405 -0.116045 57.5748 0.382967Z" fill="white"/>
</svg>
