<svg width="86" height="96" viewBox="0 0 86 96" fill="none" xmlns="http://www.w3.org/2000/svg">
<path fill-rule="evenodd" clip-rule="evenodd" d="M6.90162 0.118638C5.57283 0.400974 4.07853 1.23728 3.04443 2.27727C1.45488 3.87611 0.50857 6.20614 0.187603 9.31221C-0.0625344 11.7312 -0.0625344 84.2353 0.187603 86.6543C0.50857 89.7604 1.45488 92.0904 3.04443 93.6892C5.82483 96.4857 10.0009 96.7557 14.5895 94.4352C15.9994 93.7223 79.018 57.3514 80.6784 56.2923C81.2564 55.9236 82.3591 54.9803 83.1287 54.196C86.0884 51.1802 86.7736 47.8169 85.1211 44.4165C84.4251 42.9845 82.2825 40.6973 80.6784 39.6742C79.018 38.6151 15.9994 2.24423 14.5895 1.53126C13.8934 1.17928 12.7785 0.713909 12.1122 0.497089C10.7262 0.0463645 8.12938 -0.142298 6.90162 0.118638Z" fill="white"/>
</svg>
